<svg width="17" height="17" viewBox="0 0 17 17" fill="none" xmlns="http://www.w3.org/2000/svg">
<g clip-path="url(#clip0_98_2228)">
<mask id="mask0_98_2228" style="mask-type:luminance" maskUnits="userSpaceOnUse" x="0" y="0" width="17" height="17">
<path d="M0.716553 0.329102H16.7166V16.3291H0.716553V0.329102Z" fill="white"/>
</mask>
<g mask="url(#mask0_98_2228)">
<mask id="mask1_98_2228" style="mask-type:alpha" maskUnits="userSpaceOnUse" x="0" y="0" width="17" height="17">
<path d="M8.71655 0.329102C8.28407 0.329102 7.94215 0.695742 7.97239 1.12718L8.42775 7.63182L4.15015 2.71038C3.86647 2.38398 3.36551 2.36638 3.05975 2.67222C2.75391 2.97806 2.77143 3.47902 3.09783 3.7627L8.01927 8.0403L1.51463 7.58494C1.08319 7.55478 0.716553 7.89662 0.716553 8.3291C0.716553 8.76158 1.08319 9.10342 1.51463 9.07326L8.01927 8.6179L3.09783 12.8955C2.77143 13.1792 2.75383 13.6801 3.05967 13.986C3.36551 14.2917 3.86647 14.2742 4.15015 13.9478L8.42775 9.02638L7.97239 15.531C7.94223 15.9625 8.28407 16.3291 8.71655 16.3291C9.14903 16.3291 9.49087 15.9625 9.46071 15.531L9.00535 9.02638L13.283 13.9478C13.5666 14.2742 14.0676 14.2917 14.3734 13.986C14.6792 13.6801 14.6617 13.1792 14.3353 12.8955L9.41375 8.6179L15.9185 9.07326C16.3499 9.10342 16.7166 8.76158 16.7166 8.3291C16.7166 7.89662 16.3499 7.5547 15.9185 7.58494L9.41383 8.0403L14.3353 3.7627C14.6617 3.47902 14.6792 2.97806 14.3734 2.6723C14.0676 2.36646 13.5666 2.38398 13.283 2.71038L9.00535 7.63182L9.46071 1.12718C9.49087 0.695742 9.14903 0.329102 8.71655 0.329102Z" fill="white"/>
</mask>
<g mask="url(#mask1_98_2228)">
<path d="M16.7166 0.329102H0.716553V16.3291H16.7166V0.329102Z" fill="#07FFE1"/>
<path d="M16.7166 0.329102H0.716553V16.3291H16.7166V0.329102Z" fill="#161B1F"/>
</g>
</g>
<mask id="mask2_98_2228" style="mask-type:alpha" maskUnits="userSpaceOnUse" x="0" y="0" width="17" height="17">
<path d="M8.71655 0.329102C8.28407 0.329102 7.94215 0.695742 7.97239 1.12718L8.42775 7.63182L4.15015 2.71038C3.86647 2.38398 3.36551 2.36638 3.05975 2.67222C2.75391 2.97806 2.77143 3.47902 3.09783 3.7627L8.01927 8.0403L1.51463 7.58494C1.08319 7.55478 0.716553 7.89662 0.716553 8.3291C0.716553 8.76158 1.08319 9.10342 1.51463 9.07326L8.01927 8.6179L3.09783 12.8955C2.77143 13.1792 2.75383 13.6801 3.05967 13.986C3.36551 14.2917 3.86647 14.2742 4.15015 13.9478L8.42775 9.02638L7.97239 15.531C7.94223 15.9625 8.28407 16.3291 8.71655 16.3291C9.14903 16.3291 9.49087 15.9625 9.46071 15.531L9.00535 9.02638L13.283 13.9478C13.5666 14.2742 14.0676 14.2917 14.3734 13.986C14.6792 13.6801 14.6617 13.1792 14.3353 12.8955L9.41375 8.6179L15.9185 9.07326C16.3499 9.10342 16.7166 8.76158 16.7166 8.3291C16.7166 7.89662 16.3499 7.5547 15.9185 7.58494L9.41383 8.0403L14.3353 3.7627C14.6617 3.47902 14.6792 2.97806 14.3734 2.6723C14.0676 2.36646 13.5666 2.38398 13.283 2.71038L9.00535 7.63182L9.46071 1.12718C9.49087 0.695742 9.14903 0.329102 8.71655 0.329102Z" fill="white"/>
</mask>
<g mask="url(#mask2_98_2228)">
<g style="mix-blend-mode:overlay">
<path d="M16.7166 0.329102H0.716553V16.3291H16.7166V0.329102Z" fill="#808080"/>
</g>
</g>
</g>
<defs>
<clipPath id="clip0_98_2228">
<rect width="16" height="16" fill="white" transform="translate(0.716553 0.329102)"/>
</clipPath>
</defs>
</svg>
