<svg width="49" height="48" viewBox="0 0 49 48" fill="none" xmlns="http://www.w3.org/2000/svg">
<g clip-path="url(#clip0_99_2287)">
<mask id="mask0_99_2287" style="mask-type:luminance" maskUnits="userSpaceOnUse" x="0" y="0" width="49" height="48">
<path d="M0.798584 0L48.7801 0V47.9815H0.798584L0.798584 0Z" fill="white"/>
</mask>
<g mask="url(#mask0_99_2287)">
<mask id="mask1_99_2287" style="mask-type:alpha" maskUnits="userSpaceOnUse" x="0" y="0" width="49" height="48">
<path d="M24.7893 0C23.4924 0 22.467 1.0995 22.5577 2.39332L23.9233 21.8997L11.0954 7.14109C10.2447 6.16227 8.7424 6.10949 7.82548 7.02665C6.90831 7.94382 6.96085 9.44612 7.93967 10.2968L22.6983 23.1247L3.1919 21.7591C1.89808 21.6687 0.798584 22.6938 0.798584 23.9908C0.798584 25.2877 1.89808 26.3128 3.1919 26.2224L22.6983 24.8568L7.93967 37.6847C6.96085 38.5354 6.90807 40.0377 7.82524 40.9549C8.7424 41.8718 10.2447 41.8193 11.0954 40.8404L23.9233 26.0818L22.5577 45.5882C22.4673 46.882 23.4924 47.9815 24.7893 47.9815C26.0863 47.9815 27.1114 46.882 27.021 45.5882L25.6554 26.0818L38.4833 40.8404C39.334 41.8193 40.8363 41.8718 41.7535 40.9549C42.6704 40.0377 42.6178 38.5354 41.639 37.6847L26.8801 24.8568L46.3868 26.2224C47.6806 26.3128 48.7801 25.2877 48.7801 23.9908C48.7801 22.6938 47.6806 21.6685 46.3868 21.7591L26.8804 23.1247L41.639 10.2968C42.6178 9.44612 42.6704 7.94382 41.7535 7.02689C40.8363 6.10973 39.334 6.16227 38.4833 7.14109L25.6554 21.8997L27.021 2.39332C27.1114 1.0995 26.0863 0 24.7893 0Z" fill="white"/>
</mask>
<g mask="url(#mask1_99_2287)">
<path d="M48.7801 0L0.798584 0L0.798584 47.9815H48.7801V0Z" fill="#FFCA5F"/>
<path d="M48.7801 0L0.798584 0L0.798584 47.9815H48.7801V0Z" fill="#FFCA5F"/>
</g>
</g>
<mask id="mask2_99_2287" style="mask-type:alpha" maskUnits="userSpaceOnUse" x="0" y="-1" width="50" height="50">
<path d="M24.7893 0C23.4924 0 22.467 1.0995 22.5577 2.39332L23.9233 21.8997L11.0954 7.14109C10.2447 6.16227 8.7424 6.10949 7.82548 7.02665C6.90831 7.94382 6.96085 9.44612 7.93967 10.2968L22.6983 23.1247L3.1919 21.7591C1.89808 21.6687 0.798584 22.6938 0.798584 23.9908C0.798584 25.2877 1.89808 26.3128 3.1919 26.2224L22.6983 24.8568L7.93967 37.6847C6.96085 38.5354 6.90807 40.0377 7.82524 40.9549C8.7424 41.8718 10.2447 41.8193 11.0954 40.8404L23.9233 26.0818L22.5577 45.5882C22.4673 46.882 23.4924 47.9815 24.7893 47.9815C26.0863 47.9815 27.1114 46.882 27.021 45.5882L25.6554 26.0818L38.4833 40.8404C39.334 41.8193 40.8363 41.8718 41.7535 40.9549C42.6704 40.0377 42.6178 38.5354 41.639 37.6847L26.8801 24.8568L46.3868 26.2224C47.6806 26.3128 48.7801 25.2877 48.7801 23.9908C48.7801 22.6938 47.6806 21.6685 46.3868 21.7591L26.8804 23.1247L41.639 10.2968C42.6178 9.44612 42.6704 7.94382 41.7535 7.02689C40.8363 6.10973 39.334 6.16227 38.4833 7.14109L25.6554 21.8997L27.021 2.39332C27.1114 1.0995 26.0863 0 24.7893 0Z" fill="white" stroke="#FFCA5F"/>
</mask>
<g mask="url(#mask2_99_2287)">
<path d="M48.7801 0L0.798584 0L0.798584 47.9815H48.7801V0Z" fill="#FFCA5F" stroke="#FFCA5F"/>
</g>
</g>
<defs>
<clipPath id="clip0_99_2287">
<rect width="47.9815" height="47.9815" fill="white" transform="translate(0.798584)"/>
</clipPath>
</defs>
</svg>
