<svg width="21" height="21" viewBox="0 0 21 21" fill="none" xmlns="http://www.w3.org/2000/svg">
<mask id="mask0_98_2208" style="mask-type:luminance" maskUnits="userSpaceOnUse" x="2" y="1" width="18" height="19">
<path d="M10.7986 19.1704L2.04978 10.4216L10.7986 1.67281L19.5474 10.4216L10.7986 19.1704Z" fill="white"/>
</mask>
<g mask="url(#mask0_98_2208)">
<mask id="mask1_98_2208" style="mask-type:alpha" maskUnits="userSpaceOnUse" x="2" y="1" width="18" height="19">
<path d="M18.3552 10.2547C15.2352 9.8179 13.6753 9.59953 12.648 8.5722C11.6207 7.54487 11.4023 5.98492 10.9655 2.86496L10.7986 1.67281L10.6317 2.86496C10.1949 5.98492 9.9765 7.54487 8.94917 8.5722C7.92189 9.59948 6.36194 9.8179 3.24198 10.2547L2.04978 10.4216L3.24198 10.5884C6.36189 11.0253 7.92185 11.2437 8.94917 12.271C9.97646 13.2983 10.1949 14.8583 10.6317 17.9782L10.7986 19.1704L10.9655 17.9782C11.4024 14.8583 11.6207 13.2984 12.648 12.2711C13.6754 11.2437 15.2353 11.0253 18.3552 10.5885L19.5474 10.4216L18.3552 10.2547Z" fill="white"/>
</mask>
<g mask="url(#mask1_98_2208)">
<path d="M2.05003 10.4216L10.7988 19.1704L19.5476 10.4216L10.7988 1.67281L2.05003 10.4216Z" fill="#FFCA5F"/>
<path d="M2.05003 10.4216L10.7988 19.1704L19.5476 10.4216L10.7988 1.67281L2.05003 10.4216Z" fill="#FFCA5F"/>
<g filter="url(#filter0_f_98_2208)">
<path d="M13.9919 7.22815C12.0108 5.2471 9.56271 4.48329 8.52387 5.52214C7.48503 6.56098 8.24884 9.00909 10.2299 10.9901C12.2109 12.9712 14.659 13.735 15.6979 12.6962C16.7367 11.6573 15.9729 9.2092 13.9919 7.22815Z" fill="#FFCA5F"/>
<path d="M18.1913 8.19056C16.2103 6.20951 13.7622 5.4457 12.7233 6.48454C11.6845 7.52338 12.4483 9.97149 14.4293 11.9525C16.4104 13.9336 18.8585 14.6974 19.8973 13.6586C20.9362 12.6197 20.1724 10.1716 18.1913 8.19056Z" fill="#FFCA5F"/>
</g>
</g>
</g>
<mask id="mask2_98_2208" style="mask-type:alpha" maskUnits="userSpaceOnUse" x="2" y="1" width="18" height="19">
<path d="M18.3552 10.2547C15.2352 9.8179 13.6753 9.59953 12.648 8.5722C11.6207 7.54487 11.4023 5.98492 10.9655 2.86496L10.7986 1.67281L10.6317 2.86496C10.1949 5.98492 9.9765 7.54487 8.94917 8.5722C7.92189 9.59948 6.36194 9.8179 3.24198 10.2547L2.04978 10.4216L3.24198 10.5884C6.36189 11.0253 7.92185 11.2437 8.94917 12.271C9.97646 13.2983 10.1949 14.8583 10.6317 17.9782L10.7986 19.1704L10.9655 17.9782C11.4024 14.8583 11.6207 13.2984 12.648 12.2711C13.6754 11.2437 15.2353 11.0253 18.3552 10.5885L19.5474 10.4216L18.3552 10.2547Z" fill="white"/>
</mask>
<g mask="url(#mask2_98_2208)">
<path d="M2.04978 10.4216L10.7986 19.1704L19.5474 10.4216L10.7986 1.67281L2.04978 10.4216Z" fill="#FFCA5F"/>
</g>
<defs>
<filter id="filter0_f_98_2208" x="-27.8865" y="-30.8882" width="84.1942" height="80.9571" filterUnits="userSpaceOnUse" color-interpolation-filters="sRGB">
<feFlood flood-opacity="0" result="BackgroundImageFix"/>
<feBlend mode="normal" in="SourceGraphic" in2="BackgroundImageFix" result="shape"/>
<feGaussianBlur stdDeviation="17.9732" result="effect1_foregroundBlur_98_2208"/>
</filter>
</defs>
</svg>
