<svg width="28" height="28" viewBox="0 0 28 28" fill="none" xmlns="http://www.w3.org/2000/svg">
<path fill-rule="evenodd" clip-rule="evenodd" d="M9.45593 8.98401C10.7572 7.6827 12.5222 6.95163 14.3625 6.95163C16.2029 6.95163 17.9678 7.6827 19.2692 8.98401C20.5705 10.2853 21.3015 12.0503 21.3015 13.8906C21.3015 15.731 20.5705 17.4959 19.2692 18.7972C17.9678 20.0986 16.2029 20.8296 14.3625 20.8296C12.5222 20.8296 10.7572 20.0986 9.45593 18.7972C8.15462 17.4959 7.42355 15.731 7.42355 13.8906C7.42355 12.0503 8.15462 10.2853 9.45593 8.98401ZM12.6387 18.0522C13.1853 18.2786 13.771 18.3951 14.3625 18.3951C15.5572 18.3951 16.703 17.9205 17.5477 17.0758C18.3925 16.231 18.867 15.0853 18.867 13.8906C18.867 12.696 18.3925 11.5502 17.5477 10.7055C16.703 9.86071 15.5572 9.38613 14.3625 9.38613C13.771 9.38613 13.1853 9.50264 12.6387 9.72901C12.0922 9.95539 11.5957 10.2872 11.1774 10.7055C10.7591 11.1237 10.4273 11.6203 10.2009 12.1668C9.97456 12.7133 9.85805 13.2991 9.85805 13.8906C9.85805 14.4822 9.97456 15.0679 10.2009 15.6144C10.4273 16.1609 10.7591 16.6575 11.1774 17.0758C11.5957 17.4941 12.0922 17.8259 12.6387 18.0522Z" fill="#0E195B"/>
<path d="M22.8398 7.98546C23.1474 7.67786 23.3202 7.26065 23.3202 6.82563C23.3202 6.39061 23.1474 5.9734 22.8398 5.6658C22.5322 5.35819 22.115 5.18538 21.68 5.18538C21.245 5.18538 20.8278 5.35819 20.5202 5.6658C20.2126 5.9734 20.0397 6.39061 20.0397 6.82563C20.0397 7.26065 20.2126 7.67786 20.5202 7.98546C20.8278 8.29307 21.245 8.46588 21.68 8.46588C22.115 8.46588 22.5322 8.29307 22.8398 7.98546Z" fill="#0E195B"/>
<path fill-rule="evenodd" clip-rule="evenodd" d="M8.79695 0.471625C10.2369 0.405925 10.6959 0.390625 14.3625 0.390625C18.03 0.390625 18.4881 0.406825 19.9272 0.471625C21.3646 0.537325 22.3473 0.766825 23.2059 1.09892C24.1064 1.4381 24.9221 1.96942 25.5963 2.65593C26.2831 3.33031 26.8144 4.14638 27.1533 5.04722C27.4872 5.90582 27.7158 6.88773 27.7816 8.32503C27.8473 9.76503 27.8625 10.224 27.8625 13.8906C27.8625 17.5572 27.8473 18.0162 27.7816 19.4562C27.7158 20.8935 27.4872 21.8754 27.1542 22.734C26.8151 23.6345 26.2838 24.4502 25.5973 25.1244C24.9222 25.812 24.106 26.343 23.2059 26.6814C22.3473 27.0153 21.3654 27.2439 19.9281 27.3096C18.4881 27.3753 18.0292 27.3906 14.3625 27.3906C10.6959 27.3906 10.2369 27.3753 8.79695 27.3096C7.35965 27.2439 6.37775 27.0153 5.51915 26.6823C4.61871 26.3431 3.80299 25.8118 3.12875 25.1253C2.44115 24.4503 1.91015 23.634 1.57175 22.734C1.23785 21.8754 1.00925 20.8935 0.943549 19.4562C0.877849 18.0162 0.862549 17.5581 0.862549 13.8906C0.862549 10.2231 0.878749 9.76503 0.943549 8.32593C1.00925 6.88863 1.23875 5.90582 1.57085 5.04722C1.91002 4.14677 2.44135 3.33105 3.12785 2.65682C3.80285 1.96923 4.61915 1.43823 5.51915 1.09983C6.37775 0.765925 7.35965 0.537325 8.79695 0.471625ZM19.8183 2.90162C18.3945 2.83683 17.9671 2.82332 14.3625 2.82332C10.758 2.82332 10.3305 2.83683 8.90675 2.90162C7.59095 2.96193 6.87635 3.18152 6.40025 3.36693C5.81382 3.5829 5.2833 3.92766 4.84775 4.37583C4.37615 4.84832 4.08275 5.29833 3.83885 5.92833C3.65255 6.40443 3.43385 7.11902 3.37355 8.43483C3.30875 9.85863 3.29525 10.2861 3.29525 13.8906C3.29525 17.4951 3.30875 17.9226 3.37355 19.3464C3.43385 20.6622 3.65345 21.3768 3.83885 21.8529C4.05496 22.4393 4.39971 22.9698 4.84775 23.4054C5.28335 23.8535 5.81386 24.1983 6.40025 24.4143C6.87635 24.6006 7.59095 24.8193 8.90675 24.8796C10.3305 24.9444 10.7571 24.9579 14.3625 24.9579C17.9679 24.9579 18.3945 24.9444 19.8183 24.8796C21.1341 24.8193 21.8488 24.5997 22.3249 24.4143C22.9113 24.1984 23.4418 23.8536 23.8773 23.4054C24.3254 22.9698 24.6702 22.4393 24.8862 21.8529C25.0726 21.3768 25.2913 20.6622 25.3515 19.3464C25.4163 17.9226 25.4298 17.4951 25.4298 13.8906C25.4298 10.2861 25.4163 9.85863 25.3515 8.43483C25.2913 7.11902 25.0716 6.40443 24.8862 5.92833C24.6424 5.29833 24.3499 4.84832 23.8773 4.37583C23.4049 3.90423 22.9549 3.61083 22.3249 3.36693C21.8488 3.18063 21.1341 2.96193 19.8183 2.90162Z" fill="#0E195B"/>
</svg>
