<svg width="135" height="44" viewBox="0 0 135 44" fill="none" xmlns="http://www.w3.org/2000/svg">
<g clip-path="url(#clip0_98_2176)">
<path d="M21.8203 11.3744C19.2322 11.3744 17.9592 16.2717 16.6891 18.5157H17.3678C17.3988 18.4175 17.6973 17.5564 18.1564 16.7261C18.5506 16.0137 19.2068 15.1498 19.9109 15.1386C21.0627 15.1161 22.147 17.4722 22.3807 19.3599C22.5807 20.9755 22.1667 22.2967 21.8823 23.0035C22.1554 23.2054 22.423 23.4158 22.6793 23.6318C24.0818 20.9643 25.2167 19.5731 25.2167 16.1904C25.2167 14.0362 24.4056 11.3716 21.8231 11.3716M39.436 38.4725V13.5117L35.1919 12.0055V32.6804C35.1778 33.4069 35.037 36.1108 32.9417 38.2481C30.7619 40.4696 27.3261 41.2017 24.1071 40.1583C23.8086 40.5678 23.3298 41.1259 22.6201 41.6392C21.8147 42.2199 21.0402 42.5059 20.5248 42.6518C21.6119 43.5045 22.7666 43.7149 24.8365 43.7149C30.1846 43.7149 33.9612 39.7431 35.1947 35.6816V43.7149H35.2792L41.5172 41.642V41.4345C39.6951 41.0951 39.4388 40.1218 39.4388 38.4725M21.2993 38.0237C20.86 37.4599 20.1925 36.4418 19.8658 35.0113C19.3899 32.916 19.9362 31.1994 20.201 30.5038C20.1165 30.4028 20.0264 30.3018 19.9278 30.1981C19.8264 30.0915 19.7306 29.9933 19.6349 29.9007C19.0914 30.6525 18.3084 31.9287 17.8804 33.6817C17.5593 34.9944 17.5706 36.0238 17.5762 36.3183C17.6185 38.1556 18.1902 39.6085 18.6492 40.5089C19.0041 40.3995 19.68 40.1358 20.3108 39.5243C20.8881 38.9634 21.1669 38.3687 21.2993 38.0265" fill="#1A1A1B"/>
<path d="M65.0252 36.8905C65.0674 36.0351 65.059 34.7672 64.8083 33.045C64.7323 33.5275 64.6112 34.2511 64.4225 35.1178C63.9973 37.0869 63.7691 38.0882 63.0848 39.0363C62.7046 39.5664 61.9329 40.6323 60.9444 40.6042C59.787 40.5706 58.9899 39.0531 58.8604 38.8091C56.6496 34.6999 66.791 28.1112 65.6363 19.5282C65.5462 18.855 65.0336 15.0516 61.9527 12.8666C59.9249 11.4249 57.7508 11.3716 57.1904 11.3716C51.8423 11.3716 48.0629 15.3433 46.8322 19.4048V11.3716H46.7477L40.5096 13.4444V13.6548C42.3346 13.9914 42.5909 14.9647 42.5909 16.6139V39.7375C42.5909 40.8791 42.4219 42.8509 41.4869 43.6531V43.7373H47.9389V43.6531C47.0068 42.8509 46.835 40.8763 46.835 39.7375V22.406C46.835 18.3894 49.6371 14.6281 55.0697 14.6281C55.9202 14.6281 57.6522 14.6758 59.1843 15.8089C61.1106 17.2338 61.5612 19.5479 61.7358 20.5156C63.1665 28.4338 54.222 33.5303 56.3483 39.8245C56.8637 41.3475 58.2183 43.5101 60.2066 43.7149C61.8738 43.886 63.6368 42.6462 64.8083 40.6575C64.8252 40.3406 64.8985 39.098 64.9182 38.7754C65.0139 37.143 65.0196 37.028 65.028 36.8933" fill="#1A1A1B"/>
<path d="M100.891 11.2084C97.4467 10.998 94.8868 13.0933 94.1686 13.7019C92.4028 15.2025 91.1496 17.2109 90.5328 19.2388V0H90.4483L84.2131 2.07282V2.28599C86.0409 2.62258 86.2915 3.59588 86.2915 5.24236V40.3709C86.2915 41.5125 86.1197 42.8224 85.1904 43.6246V43.7087H91.6424V43.6246C90.7102 42.8224 90.5385 40.7131 90.5385 39.5715V22.2372C90.5385 20.1532 91.296 18.1337 92.783 16.6779C94.9741 14.5322 97.7875 14.4228 98.776 14.4593C98.8718 14.4621 98.9478 14.4677 99.0013 14.4705C99.3055 14.002 99.8039 13.3485 100.567 12.7314C101.375 12.0807 102.161 11.7217 102.702 11.5253C102.271 11.3991 101.649 11.2504 100.894 11.2056M109.551 35.2211C108.515 37.1284 108.036 37.7119 107.529 38.371C107.732 38.587 107.943 38.7889 108.151 38.9741C109.064 37.3641 109.675 36.2 110.23 35.2211H109.551ZM105.014 12.4706C104.685 12.6192 104.324 12.8072 103.955 13.0568C102.916 13.7552 102.257 14.5967 101.865 15.2138C102.386 15.3905 103.212 15.7467 103.966 16.4788C105.628 18.0888 105.814 20.3523 105.814 21.78C105.814 23.3536 105.636 24.5204 105.383 25.6452C105.065 27.056 104.454 29.098 103.172 31.4036C103.285 31.6701 103.406 31.9394 103.533 32.2143C103.696 32.5649 103.859 32.9015 104.023 33.224C104.67 31.8749 108.143 24.5372 108.25 18.9218C108.278 17.4885 108.289 15.253 106.752 13.6486C106.143 13.0147 105.476 12.6641 105.011 12.4734M100.795 37.1144C100.618 37.8914 100.629 37.9447 100.514 38.73C100.201 40.8618 101.319 43.5488 103.907 43.5488C104.915 43.5488 105.898 43.5124 106.805 42.2586C106.045 42.0735 104.763 41.6555 103.479 40.6486C101.863 39.3836 101.111 37.8689 100.795 37.1172" fill="#1A1A1B"/>
<path d="M129.456 41.8903C131.323 41.8903 133.021 40.7907 134.083 39.4809L134.252 39.6071C133.148 41.7612 130.518 43.7078 127.333 43.7078C122.748 43.7078 122.238 39.4388 122.238 36.014V13.7768C122.238 12.1275 120.923 12.2144 118.163 12.2144V12.0041C122.705 11.2019 124.274 9.59466 126.398 5.62012H126.482V12.0041H132.85V13.7796L126.482 12.4276V36.7349C126.482 38.5524 126.44 41.8931 129.453 41.8931" fill="#1A1A1B"/>
<path d="M67.6081 16.9954C67.6081 26.9724 85.6913 23.6739 85.6913 34.7925C85.6913 40.6687 81.1909 43.7121 74.4009 43.7121C69.4358 43.7121 66.1662 41.9786 64.8087 40.6267V33.017H65.02C66.5464 39.6982 69.5626 43.0781 73.8489 43.0781C79.4505 43.0781 82.2527 39.8217 82.2527 35.892C82.2527 28.114 64.085 29.466 64.085 19.4469C64.085 14.2045 69.6443 11.3716 74.9923 11.3716C80.6361 11.3716 84.3733 13.4865 84.3733 15.8538C84.3733 16.4036 83.8213 17.0375 83.1003 17.0375C79.7462 17.0375 79.6617 12.1766 73.2547 12.1766C69.8611 12.1766 67.6109 14.8412 67.6109 16.9954" fill="#1A1A1B"/>
<path d="M103.96 11.7115C110.147 9.60784 117.608 14.752 120.503 23.1948C123.384 31.5954 120.643 40.2121 114.456 42.3186C108.19 44.4503 100.727 39.3061 97.8487 30.9026C94.9536 22.4627 97.6966 13.8432 103.963 11.7115M114.208 41.7295C118.748 40.184 119.173 32.4032 116.484 24.5607C113.78 16.679 108.663 10.7831 104.123 12.3258C99.5046 13.8965 99.1582 21.6521 101.862 29.5338C104.551 37.3763 109.587 43.3003 114.208 41.7295Z" fill="#1A1A1B"/>
<path d="M1.52354 32.7233C2.79649 38.7258 7.04341 43.0397 13.5771 43.0397C17.441 43.0397 22.5328 39.9122 22.5328 34.7961C22.5328 22.7911 0.416748 24.3535 0.416748 10.8675C0.416748 4.18906 6.99553 0.130371 14.0418 0.130371C17.9902 0.130371 21.6823 1.35611 23.848 2.96331V8.28982C20.6234 3.89454 15.74 1.22989 11.2002 1.22989C7.08284 1.22989 4.06944 3.68417 4.06944 8.7975C4.06944 20.8894 26.439 19.4505 26.439 32.9364C26.439 39.6177 20.5812 43.6736 13.1969 43.6736C7.08284 43.6736 3.4752 42.4479 1.31232 40.8406V32.7233H1.52354Z" fill="#1A1A1B"/>
</g>
<defs>
<clipPath id="clip0_98_2176">
<rect width="133.835" height="43.7371" fill="white" transform="translate(0.416748)"/>
</clipPath>
</defs>
</svg>
