<svg width="37" height="37" viewBox="0 0 37 37" fill="none" xmlns="http://www.w3.org/2000/svg">
<path d="M27.439 9.90403C25.823 8.85039 24.6567 7.16455 24.2928 5.19932C24.2142 4.77472 24.171 4.33773 24.171 3.89062H19.0134L19.0051 24.5606C18.9184 26.8752 17.0134 28.733 14.6779 28.733C13.9521 28.733 13.2686 28.5515 12.6668 28.2349C11.2868 27.5087 10.3424 26.0622 10.3424 24.3976C10.3424 22.0069 12.2874 20.0619 14.6779 20.0619C15.1242 20.0619 15.5522 20.1355 15.9572 20.2623V14.997C15.5381 14.9399 15.1124 14.9043 14.6779 14.9043C9.44331 14.9043 5.18481 19.163 5.18481 24.3976C5.18481 27.6092 6.78945 30.4515 9.23749 32.1701C10.7795 33.2526 12.6551 33.8906 14.6779 33.8906C19.9125 33.8906 24.171 29.6322 24.171 24.3976V13.9161C26.1939 15.368 28.6723 16.2236 31.3466 16.2236V11.066C29.906 11.066 28.5643 10.6377 27.439 9.90403" fill="#0E195B"/>
</svg>
