<svg width="37" height="37" viewBox="0 0 37 37" fill="none" xmlns="http://www.w3.org/2000/svg">
<path d="M18.3305 5.82617C10.9203 5.82617 4.88976 11.6347 4.88715 18.7731C4.88541 21.0559 5.50554 23.2839 6.68135 25.2461L4.77393 31.9552L11.9011 30.1549C13.8836 31.192 16.0879 31.7329 18.3253 31.7314H18.3305C25.7407 31.7314 31.7713 25.922 31.7739 18.7836C31.7757 15.3258 30.3786 12.071 27.8398 9.62446C25.3018 7.17704 21.9268 5.82704 18.3305 5.82617ZM18.3305 29.5444H18.3262C16.3212 29.5444 14.3546 29.0253 12.6388 28.0446L12.2294 27.8111L8.00173 28.8789L9.13051 24.9073L8.86486 24.5006C7.74907 22.7988 7.15509 20.808 7.15602 18.7731C7.15864 12.8392 12.1719 8.01317 18.3349 8.01317C21.3188 8.01404 24.1242 9.13498 26.2346 11.1687C28.3449 13.2024 29.5059 15.9068 29.5042 18.7827C29.5016 24.7166 24.4892 29.5444 18.3297 29.5444H18.3305ZM24.4595 21.4836C24.1233 21.3224 22.472 20.5394 22.1637 20.4306C21.8562 20.3234 21.6324 20.2677 21.4085 20.5917C21.1856 20.9157 20.5411 21.6447 20.346 21.8598C20.1491 22.0758 19.9532 22.1019 19.617 21.9408C19.2808 21.7788 18.1982 21.4374 16.9161 20.3348C15.9171 19.4777 15.243 18.4186 15.047 18.0938C14.851 17.7706 15.0261 17.5956 15.1942 17.4344C15.3449 17.2907 15.5304 17.0573 15.6976 16.8683C15.8648 16.6793 15.9206 16.5443 16.0338 16.3283C16.1453 16.1132 16.0895 15.9233 16.0051 15.7622C15.9206 15.5993 15.2499 14.0072 14.9686 13.36C14.6969 12.7295 14.4199 12.8139 14.2135 12.8035C14.0175 12.7948 13.7945 12.7922 13.569 12.7922C13.3469 12.7922 12.9819 12.8732 12.6736 13.1972C12.3662 13.5212 11.4978 14.3033 11.4978 15.8954C11.4978 17.4884 12.7015 19.0266 12.8696 19.2426C13.0377 19.4577 15.2386 22.7264 18.6084 24.1287C19.4097 24.4605 20.035 24.66 20.5236 24.8098C21.3284 25.0563 22.0609 25.0206 22.6392 24.9378C23.2837 24.8446 24.6268 24.1557 24.9055 23.4006C25.1859 22.6454 25.1859 21.9974 25.1023 21.8624C25.0204 21.7274 24.7957 21.6464 24.4595 21.4836V21.4836Z" fill="#0E195B"/>
</svg>
